<svg width="37" height="42" viewBox="0 0 37 42" fill="none" xmlns="http://www.w3.org/2000/svg">
<path d="M4.10602 36.0285C4.10602 31.738 3.2406 7.11328 3.2406 7.11328H34.0267V36.0285C34.0267 41.0341 4.10602 40.3191 4.10602 36.0285Z" stroke="#970000" stroke-width="3"/>
<line x1="10.6949" y1="13.6725" x2="10.6949" y2="33.5953" stroke="#970000" stroke-width="3"/>
<line x1="19.8901" y1="12.1679" x2="19.8901" y2="35.1558" stroke="#970000" stroke-width="3"/>
<line x1="29.0852" y1="13.6725" x2="29.0852" y2="33.5953" stroke="#970000" stroke-width="3"/>
<path d="M7.64978e-06 6.30312L9.72192 6.30312M36.4572 6.30312L28.3556 6.30312M28.3556 6.30312L28.3556 4.25231C28.3556 3.14774 27.4602 2.25231 26.3556 2.25231L11.7219 2.25231C10.6173 2.25231 9.72192 3.14774 9.72192 4.25231L9.72192 6.30312M28.3556 6.30312L9.72192 6.30312" stroke="#970000" stroke-width="3"/>
</svg>
